<svg width="64" height="64" viewBox="0 0 64 64" fill="none" xmlns="http://www.w3.org/2000/svg">
<path d="M42.6983 23C42.6983 28.9085 37.9085 33.6983 32 33.6983V36.3017C39.3463 36.3017 45.3017 30.3463 45.3017 23H42.6983ZM32 33.6983C26.0915 33.6983 21.3017 28.9085 21.3017 23H18.6983C18.6983 30.3463 24.6537 36.3017 32 36.3017V33.6983ZM21.3017 23C21.3017 17.0915 26.0915 12.3017 32 12.3017V9.69828C24.6537 9.69828 18.6983 15.6537 18.6983 23H21.3017ZM32 12.3017C37.9085 12.3017 42.6983 17.0915 42.6983 23H45.3017C45.3017 15.6537 39.3463 9.69828 32 9.69828V12.3017ZM23 45.3017H41V42.6983H23V45.3017ZM3.30172 32C3.30172 16.1504 16.1504 3.30172 32 3.30172V0.698284C14.7125 0.698284 0.698284 14.7125 0.698284 32H3.30172ZM32 3.30172C47.8496 3.30172 60.6983 16.1504 60.6983 32H63.3017C63.3017 14.7125 49.2875 0.698284 32 0.698284V3.30172ZM60.6983 32C60.6983 40.1387 57.3121 47.4843 51.8682 52.7086L53.6709 54.587C59.6051 48.8921 63.3017 40.8766 63.3017 32H60.6983ZM51.8682 52.7086C46.7106 57.6583 39.7117 60.6983 32 60.6983V63.3017C40.4101 63.3017 48.0479 59.9832 53.6709 54.587L51.8682 52.7086ZM41 45.3017C46.1893 45.3017 50.5182 48.9977 51.4928 53.9016L54.0463 53.3941C52.8343 47.2955 47.4555 42.6983 41 42.6983V45.3017ZM32 60.6983C24.2883 60.6983 17.2894 57.6583 12.1318 52.7086L10.3291 54.587C15.9521 59.9832 23.5899 63.3017 32 63.3017V60.6983ZM12.1318 52.7086C6.68789 47.4843 3.30172 40.1387 3.30172 32H0.698284C0.698284 40.8766 4.39489 48.8921 10.3291 54.587L12.1318 52.7086ZM23 42.6983C16.5445 42.6983 11.1657 47.2955 9.95369 53.3941L12.5072 53.9016C13.4818 48.9977 17.8107 45.3017 23 45.3017V42.6983Z" fill="#D9D9D9"/>
</svg>
