<svg width="90" height="60" viewBox="0 0 90 60" fill="none" xmlns="http://www.w3.org/2000/svg">
<path d="M0 15C0 6.71573 6.71573 0 15 0H90V60H15C6.71573 60 0 53.2843 0 45V15Z" fill="#DE8B0E"/>
<path d="M41.9689 40.9614L42.5513 41.5683L41.9689 40.9614ZM18.6759 40.9614L18.0935 41.5683L18.6759 40.9614ZM36.2103 23.7757C36.2103 27.0275 33.5742 29.6636 30.3224 29.6636V31.3458C34.5033 31.3458 37.8925 27.9565 37.8925 23.7757H36.2103ZM30.3224 29.6636C27.0707 29.6636 24.4346 27.0275 24.4346 23.7757H22.7523C22.7523 27.9565 26.1416 31.3458 30.3224 31.3458V29.6636ZM24.4346 23.7757C24.4346 20.5239 27.0707 17.8879 30.3224 17.8879V16.2056C26.1416 16.2056 22.7523 19.5949 22.7523 23.7757H24.4346ZM30.3224 17.8879C33.5742 17.8879 36.2103 20.5239 36.2103 23.7757H37.8925C37.8925 19.5949 34.5033 16.2056 30.3224 16.2056V17.8879ZM25.2757 36.3925H35.3692V34.7103H25.2757V36.3925ZM14.3411 28.8224C14.3411 19.9962 21.4962 12.8411 30.3224 12.8411V11.1589C20.5671 11.1589 12.6589 19.0671 12.6589 28.8224H14.3411ZM30.3224 12.8411C39.1487 12.8411 46.3037 19.9962 46.3037 28.8224H47.986C47.986 19.0671 40.0777 11.1589 30.3224 11.1589V12.8411ZM46.3037 28.8224C46.3037 33.3547 44.4182 37.4451 41.3865 40.3545L42.5513 41.5683C45.8999 38.3547 47.986 33.8315 47.986 28.8224H46.3037ZM41.3865 40.3545C38.5142 43.111 34.6169 44.8037 30.3224 44.8037V46.486C35.0682 46.486 39.3784 44.6133 42.5513 41.5683L41.3865 40.3545ZM35.3692 36.3925C38.225 36.3925 40.6076 38.4266 41.1439 41.1253L42.7939 40.7974C42.1041 37.3267 39.0431 34.7103 35.3692 34.7103V36.3925ZM30.3224 44.8037C26.028 44.8037 22.1306 43.111 19.2583 40.3545L18.0935 41.5683C21.2665 44.6133 25.5766 46.486 30.3224 46.486V44.8037ZM19.2583 40.3545C16.2267 37.4451 14.3411 33.3547 14.3411 28.8224H12.6589C12.6589 33.8315 14.745 38.3547 18.0935 41.5683L19.2583 40.3545ZM25.2757 34.7103C21.6017 34.7103 18.5407 37.3267 17.851 40.7974L19.5009 41.1253C20.0373 38.4266 22.4199 36.3925 25.2757 36.3925V34.7103Z" fill="#292727"/>
<path d="M82.7207 35.9459C83.1511 36.3725 83.1542 37.0671 82.7276 37.4975C82.3011 37.9278 81.6064 37.9309 81.1761 37.5044L78.5507 34.9023C77.5619 33.9223 76.7537 33.1214 76.1806 32.4077C75.5846 31.6656 75.1531 30.9123 75.0379 30.0081C74.9874 29.6117 74.9874 29.2104 75.0379 28.814C75.1531 27.9098 75.5846 27.1565 76.1806 26.4144C76.7537 25.7007 77.5619 24.8998 78.5507 23.9198L81.1761 21.3177C81.6064 20.8912 82.3011 20.8943 82.7276 21.3246C83.1542 21.755 83.1511 22.4496 82.7207 22.8762L80.1418 25.4322C79.0952 26.4695 78.3772 27.1834 77.8914 27.7884C77.4195 28.376 77.2576 28.7534 77.2145 29.0914C77.1875 29.3037 77.1875 29.5184 77.2145 29.7307C77.2576 30.0687 77.4195 30.4461 77.8914 31.0337C78.3772 31.6387 79.0952 32.3526 80.1418 33.3899L82.7207 35.9459Z" fill="#292727"/>
</svg>
