<svg width="40" height="40" viewBox="0 0 40 40" fill="none" xmlns="http://www.w3.org/2000/svg">
<path d="M1.93548 0C0.866546 0 0 0.994923 0 2.22222C0 3.44952 0.866546 4.44444 1.93548 4.44444H38.0645C39.1335 4.44444 40 3.44952 40 2.22222C40 0.994923 39.1335 0 38.0645 0H1.93548Z" fill="#D9D9D9"/>
<path d="M1.93548 17.7778C0.866546 17.7778 0 18.7727 0 20C0 21.2273 0.866546 22.2222 1.93548 22.2222H38.0645C39.1335 22.2222 40 21.2273 40 20C40 18.7727 39.1335 17.7778 38.0645 17.7778H1.93548Z" fill="#D9D9D9"/>
<path d="M1.93548 35.5556C0.866546 35.5556 0 36.5505 0 37.7778C0 39.0051 0.866546 40 1.93548 40H38.0645C39.1335 40 40 39.0051 40 37.7778C40 36.5505 39.1335 35.5556 38.0645 35.5556H1.93548Z" fill="#D9D9D9"/>
</svg>
