<svg width="105" height="55" viewBox="0 0 105 55" fill="none" xmlns="http://www.w3.org/2000/svg">
<path d="M0 4.39056e-08H5.67867V15.3324H0V4.39056e-08Z" fill="#D9D9D9"/>
<path d="M1.13573 5.67867L1.13573 9.16119e-07L15.9003 2.70741e-07V5.67867L1.13573 5.67867Z" fill="#D9D9D9"/>
<path d="M10.2216 0L15.9003 2.70741e-07V20.4432H10.2216V0Z" fill="#D9D9D9"/>
<path d="M0 54.5152H5.67867V39.1828H0V54.5152Z" fill="#D9D9D9"/>
<path d="M1.13573 48.8366L1.13573 54.5152H15.9003V48.8366H1.13573Z" fill="#D9D9D9"/>
<path d="M10.2216 54.5152H15.9003V29.5291H10.2216V54.5152Z" fill="#D9D9D9"/>
<path d="M4.54293 22.1468H10.2216V27.8255H4.54293V22.1468Z" fill="#D9D9D9"/>
<path d="M10.2216 20.4432H15.9003L13.0609 24.9861H7.38227L10.2216 20.4432Z" fill="#D9D9D9"/>
<path d="M13.0609 24.9861H7.38227L10.2216 29.5291H15.9003L13.0609 24.9861Z" fill="#D9D9D9"/>
<path d="M88.5872 0H94.2659V15.3324H88.5872V0Z" fill="#D9D9D9"/>
<path d="M89.723 5.67867V9.16119e-07L104.487 2.70741e-07V5.67867L89.723 5.67867Z" fill="#D9D9D9"/>
<path d="M98.8088 0L104.487 2.70741e-07L104.487 20.4432H98.8088V0Z" fill="#D9D9D9"/>
<path d="M88.5872 54.5152H94.2659V39.1828H88.5872V54.5152Z" fill="#D9D9D9"/>
<path d="M89.723 48.8365V54.5152H104.487V48.8365H89.723Z" fill="#D9D9D9"/>
<path d="M98.8088 54.5152H104.487V29.5291H98.8088V54.5152Z" fill="#D9D9D9"/>
<path d="M93.1302 22.1468H98.8088V27.8255H93.1302V22.1468Z" fill="#D9D9D9"/>
<path d="M98.8088 20.4432H104.487L101.648 24.9861H95.9695L98.8088 20.4432Z" fill="#D9D9D9"/>
<path d="M101.648 24.9861H95.9695L98.8088 29.5291H104.487L101.648 24.9861Z" fill="#D9D9D9"/>
<path d="M54.5152 27.2576H59.626V54.5152H54.5152V27.2576Z" fill="#D9D9D9"/>
<path d="M45.9972 43.1579V38.0471H57.9224V43.1579H45.9972Z" fill="#D9D9D9"/>
<path d="M49.9723 17.6039H55.367L48.8365 43.1579H43.1579L49.9723 17.6039Z" fill="#D9D9D9"/>
<path d="M53.7297 0H59.1244L57.9887 3.97507H52.594L53.7297 0Z" fill="#D9D9D9"/>
<path d="M22.1468 23.8504H39.7507V28.3933H22.1468V23.8504Z" fill="#D9D9D9"/>
<path d="M66.4404 23.8504H84.0443V28.3933H66.4404V23.8504Z" fill="#D9D9D9"/>
<path d="M26.4002 9.60954H25.4735V9.40056C25.4735 9.18856 25.422 9.00684 25.319 8.85541C25.2221 8.69792 25.0555 8.61917 24.8193 8.61917C24.6921 8.61917 24.5891 8.6434 24.5104 8.69186C24.4316 8.74032 24.368 8.80089 24.3196 8.87358C24.2711 8.95232 24.2378 9.04318 24.2196 9.14616C24.2015 9.24307 24.1924 9.34604 24.1924 9.45508C24.1924 9.58228 24.1954 9.68828 24.2015 9.77308C24.2136 9.85788 24.2378 9.9336 24.2741 10.0002C24.3105 10.0669 24.362 10.1244 24.4286 10.1729C24.5013 10.2213 24.5982 10.2698 24.7194 10.3182L25.428 10.5999C25.634 10.6786 25.8006 10.7725 25.9278 10.8816C26.055 10.9845 26.1549 11.1057 26.2276 11.245C26.2942 11.3904 26.3397 11.5569 26.3639 11.7447C26.3881 11.9264 26.4002 12.1354 26.4002 12.3716C26.4002 12.6442 26.373 12.8986 26.3185 13.1349C26.2639 13.365 26.1761 13.5619 26.055 13.7254C25.9278 13.895 25.7612 14.0283 25.5553 14.1252C25.3493 14.2221 25.0979 14.2706 24.8011 14.2706C24.577 14.2706 24.368 14.2312 24.1742 14.1525C23.9804 14.0737 23.8138 13.9647 23.6745 13.8254C23.5352 13.6861 23.4231 13.5255 23.3383 13.3438C23.2596 13.1561 23.2202 12.9531 23.2202 12.7351V12.3898H24.1469V12.6806C24.1469 12.8502 24.1954 13.0046 24.2923 13.1439C24.3953 13.2772 24.5649 13.3438 24.8011 13.3438C24.9586 13.3438 25.0798 13.3226 25.1646 13.2802C25.2554 13.2318 25.3251 13.1651 25.3735 13.0803C25.422 12.9955 25.4492 12.8956 25.4553 12.7805C25.4674 12.6594 25.4735 12.5261 25.4735 12.3807C25.4735 12.2111 25.4674 12.0718 25.4553 11.9628C25.4432 11.8537 25.419 11.7659 25.3826 11.6993C25.3402 11.6327 25.2827 11.5781 25.21 11.5357C25.1434 11.4933 25.0525 11.4479 24.9374 11.3995L24.2741 11.1269C23.8744 10.9633 23.6048 10.7483 23.4655 10.4818C23.3322 10.2092 23.2656 9.87 23.2656 9.46416C23.2656 9.22187 23.2989 8.9917 23.3656 8.77364C23.4322 8.55557 23.5321 8.3678 23.6654 8.21031C23.7926 8.05282 23.9531 7.92865 24.1469 7.83779C24.3468 7.74088 24.5831 7.69242 24.8556 7.69242C25.0858 7.69242 25.2948 7.73482 25.4826 7.81962C25.6764 7.90442 25.843 8.01648 25.9823 8.1558C26.2609 8.44654 26.4002 8.77969 26.4002 9.15524V9.60954Z" fill="#D9D9D9"/>
<path d="M30.2004 14.2161V8.61917H29.1283V7.74693H32.1993V8.61917H31.1272V14.2161H30.2004Z" fill="#D9D9D9"/>
<path d="M36.0338 8.61917V10.6362H36.5608C36.7243 10.6362 36.8546 10.615 36.9515 10.5726C37.0484 10.5242 37.1241 10.4576 37.1786 10.3727C37.2271 10.2879 37.2604 10.185 37.2786 10.0638C37.2967 9.93663 37.3058 9.79125 37.3058 9.62771C37.3058 9.46416 37.2967 9.32182 37.2786 9.20067C37.2604 9.07347 37.2241 8.96444 37.1695 8.87358C37.0545 8.70398 36.8364 8.61917 36.5154 8.61917H36.0338ZM35.1071 14.2161V7.74693H36.5971C37.6874 7.74693 38.2326 8.37992 38.2326 9.64588C38.2326 10.0275 38.172 10.3515 38.0509 10.6181C37.9358 10.8846 37.7298 11.0996 37.433 11.2632L38.4325 14.2161H37.4512L36.5881 11.454H36.0338V14.2161H35.1071Z" fill="#D9D9D9"/>
<path d="M41.4743 14.2161V7.74693H44.2364V8.61917H42.401V10.5181H44.0001V11.3904H42.401V13.2893H44.2364V14.2161H41.4743Z" fill="#D9D9D9"/>
<path d="M47.3357 14.2161V7.74693H50.0978V8.61917H48.2625V10.5181H49.8616V11.3904H48.2625V13.2893H50.0978V14.2161H47.3357Z" fill="#D9D9D9"/>
<path d="M53.8059 14.2161V8.61917H52.7338V7.74693H55.8048V8.61917H54.7327V14.2161H53.8059Z" fill="#D9D9D9"/>
<path d="M63.519 7.74693L62.5559 14.2161H61.6836L60.9749 10.0184H60.9568L60.2572 14.2161H59.3849L58.4218 7.74693H59.4031L59.8665 11.8537H59.8846L60.6115 7.74693H61.3202L62.0743 11.9537H62.0925L62.5377 7.74693H63.519Z" fill="#D9D9D9"/>
<path d="M66.597 14.2161V7.74693H69.3591V8.61917H67.5238V10.5181H69.1229V11.3904H67.5238V13.2893H69.3591V14.2161H66.597Z" fill="#D9D9D9"/>
<path d="M74.3302 11.9537L73.8759 9.60954H73.8577L73.4034 11.9537H74.3302ZM72.0405 14.2161L73.4852 7.74693H74.2575L75.7021 14.2161H74.7754L74.5028 12.8259H73.2399L72.9673 14.2161H72.0405Z" fill="#D9D9D9"/>
<path d="M79.5839 8.61917V10.6362H80.1109C80.2744 10.6362 80.4046 10.615 80.5015 10.5726C80.5985 10.5242 80.6742 10.4576 80.7287 10.3727C80.7772 10.2879 80.8105 10.185 80.8286 10.0638C80.8468 9.93663 80.8559 9.79125 80.8559 9.62771C80.8559 9.46416 80.8468 9.32182 80.8286 9.20067C80.8105 9.07347 80.7741 8.96444 80.7196 8.87358C80.6045 8.70398 80.3865 8.61917 80.0654 8.61917H79.5839ZM78.6571 14.2161V7.74693H80.1472C81.2375 7.74693 81.7827 8.37992 81.7827 9.64588C81.7827 10.0275 81.7221 10.3515 81.6009 10.6181C81.4858 10.8846 81.2799 11.0996 80.9831 11.2632L81.9825 14.2161H81.0013L80.1381 11.454H79.5839V14.2161H78.6571Z" fill="#D9D9D9"/>
</svg>
