<svg width="60" height="60" viewBox="0 0 60 60" fill="none" xmlns="http://www.w3.org/2000/svg">
<path fill-rule="evenodd" clip-rule="evenodd" d="M2.83089 14.5687L0.0502951 2.23596C-0.174938 1.23699 0.382151 0.278566 1.20543 0.0503469C2.0091 -0.172433 2.88255 0.359106 3.10553 1.34812L5.5836 12.3391L47.8141 12.3391C50.2868 12.339 52.2846 12.3398 53.8486 12.5515C55.4621 12.7698 56.8759 13.2398 57.9958 14.4118C58.4858 14.9245 58.9065 15.5155 59.2435 16.1664C60.0187 17.6634 60.1026 19.3219 59.9163 21.1296C59.7363 22.875 59.2693 25.0382 58.6936 27.7014L58.6383 27.9572C57.6851 32.3675 56.94 35.8125 56.0887 38.5153C55.2184 41.2784 54.1912 43.4249 52.5941 45.1633C51.8295 45.9957 50.9864 46.7328 50.0798 47.3622C48.1907 48.6737 46.0811 49.2774 43.4667 49.5705C40.9046 49.8578 37.7161 49.8584 33.6238 49.8583H32.0554C27.3257 49.8584 23.6407 49.8576 20.7037 49.4791C17.7035 49.0925 15.3119 48.295 13.2415 46.5683C13.0609 46.4176 12.8833 46.2623 12.709 46.1026C10.7073 44.2682 9.44325 41.8634 8.39996 38.7035C7.38079 35.6166 6.51969 31.6351 5.4179 26.5376L2.83089 14.5687ZM6.37118 15.9243L8.45143 25.5485C9.58537 30.7947 10.4055 34.5767 11.353 37.4464C12.2854 40.2706 13.2854 42.0275 14.6869 43.3119C14.8238 43.4374 14.9633 43.5594 15.1053 43.6778C16.5633 44.8938 18.3493 45.5677 21.0578 45.9167C23.8032 46.2705 27.3189 46.2732 32.1815 46.2732H33.5155C37.722 46.2732 40.7632 46.2712 43.1581 46.0026C45.5235 45.7374 47.1103 45.2243 48.4383 44.3023C49.152 43.8068 49.8143 43.2275 50.4138 42.5749C51.5255 41.3648 52.3392 39.7859 53.1192 37.3095C53.9106 34.7968 54.6198 31.5252 55.6007 26.9869C56.2101 24.1678 56.629 22.2157 56.7839 20.7135C56.9355 19.2429 56.796 18.5051 56.5254 17.9825C56.3471 17.6383 56.1235 17.3235 55.8609 17.0487C55.4534 16.6223 54.8177 16.293 53.4772 16.1116C52.115 15.9273 50.2967 15.9243 47.6855 15.9243H6.37118ZM23.7884 36.9601C23.7884 35.9296 24.5328 35.1675 25.3653 35.1675H41.2235C42.056 35.1675 42.8004 35.9296 42.8004 36.9601C42.8004 37.9905 42.056 38.7527 41.2235 38.7527H25.3653C24.5328 38.7527 23.7884 37.9905 23.7884 36.9601ZM26.2118 57.3205C26.2118 58.8408 25.1093 60 23.8351 60C22.5608 60 21.4583 58.8408 21.4583 57.3205C21.4583 55.8003 22.5608 54.641 23.8351 54.641C25.1093 54.641 26.2118 55.8003 26.2118 57.3205ZM42.9047 57.3205C42.9047 58.8408 41.8022 60 40.528 60C39.2537 60 38.1512 58.8408 38.1512 57.3205C38.1512 55.8003 39.2537 54.641 40.528 54.641C41.8022 54.641 42.9047 55.8003 42.9047 57.3205Z" fill="#D9D9D9"/>
</svg>
