<svg width="230" height="120" viewBox="0 0 230 120" fill="none" xmlns="http://www.w3.org/2000/svg">
<path d="M0 9.66459e-08H12.5V33.75H0V9.66459e-08Z" fill="#D9D9D9"/>
<path d="M2.5 12.5L2.5 2.01658e-06L35 5.9596e-07V12.5L2.5 12.5Z" fill="#D9D9D9"/>
<path d="M22.5 0L35 5.9596e-07V45H22.5V0Z" fill="#D9D9D9"/>
<path d="M0 120H12.5V86.25H0V120Z" fill="#D9D9D9"/>
<path d="M2.5 107.5L2.5 120H35V107.5H2.5Z" fill="#D9D9D9"/>
<path d="M22.5 120H35V65H22.5V120Z" fill="#D9D9D9"/>
<path d="M10 48.75H22.5V61.25H10V48.75Z" fill="#D9D9D9"/>
<path d="M22.5 45H35L28.75 55H16.25L22.5 45Z" fill="#D9D9D9"/>
<path d="M28.75 55H16.25L22.5 65H35L28.75 55Z" fill="#D9D9D9"/>
<path d="M195 0H207.5V33.75H195V0Z" fill="#D9D9D9"/>
<path d="M197.5 12.5V2.01658e-06L230 5.9596e-07V12.5L197.5 12.5Z" fill="#D9D9D9"/>
<path d="M217.5 0L230 5.9596e-07L230 45H217.5V0Z" fill="#D9D9D9"/>
<path d="M195 120H207.5V86.25H195V120Z" fill="#D9D9D9"/>
<path d="M197.5 107.5V120H230V107.5H197.5Z" fill="#D9D9D9"/>
<path d="M217.5 120H230V65H217.5V120Z" fill="#D9D9D9"/>
<path d="M205 48.75H217.5V61.25H205V48.75Z" fill="#D9D9D9"/>
<path d="M217.5 45H230L223.75 55H211.25L217.5 45Z" fill="#D9D9D9"/>
<path d="M223.75 55H211.25L217.5 65H230L223.75 55Z" fill="#D9D9D9"/>
<path d="M120 60H131.25V120H120V60Z" fill="#D9D9D9"/>
<path d="M101.25 95V83.75H127.5V95H101.25Z" fill="#D9D9D9"/>
<path d="M110 38.75H121.875L107.5 95.0001H95L110 38.75Z" fill="#D9D9D9"/>
<path d="M118.271 0H130.146L127.646 8.75H115.771L118.271 0Z" fill="#D9D9D9"/>
<path d="M48.75 52.5H87.5V62.5H48.75V52.5Z" fill="#D9D9D9"/>
<path d="M146.25 52.5H185V62.5H146.25V52.5Z" fill="#D9D9D9"/>
<path d="M58.1127 21.1527H56.0727V20.6927C56.0727 20.226 55.9594 19.826 55.7327 19.4927C55.5194 19.146 55.1527 18.9727 54.6327 18.9727C54.3527 18.9727 54.1261 19.026 53.9527 19.1327C53.7794 19.2394 53.6394 19.3727 53.5327 19.5327C53.4261 19.706 53.3527 19.906 53.3127 20.1327C53.2727 20.346 53.2527 20.5727 53.2527 20.8127C53.2527 21.0927 53.2594 21.326 53.2727 21.5127C53.2994 21.6994 53.3527 21.866 53.4327 22.0127C53.5127 22.1594 53.6261 22.286 53.7727 22.3927C53.9327 22.4994 54.1461 22.606 54.4127 22.7127L55.9727 23.3327C56.4261 23.506 56.7927 23.7127 57.0727 23.9527C57.3527 24.1794 57.5727 24.446 57.7327 24.7527C57.8794 25.0727 57.9794 25.4394 58.0327 25.8527C58.0861 26.2527 58.1127 26.7127 58.1127 27.2327C58.1127 27.8327 58.0527 28.3927 57.9327 28.9127C57.8127 29.4194 57.6194 29.8527 57.3527 30.2127C57.0727 30.586 56.7061 30.8794 56.2527 31.0927C55.7994 31.306 55.2461 31.4127 54.5927 31.4127C54.0994 31.4127 53.6394 31.326 53.2127 31.1527C52.7861 30.9794 52.4194 30.7394 52.1127 30.4327C51.8061 30.126 51.5594 29.7727 51.3727 29.3727C51.1994 28.9594 51.1127 28.5127 51.1127 28.0327V27.2727H53.1527V27.9127C53.1527 28.286 53.2594 28.626 53.4727 28.9327C53.6994 29.226 54.0727 29.3727 54.5927 29.3727C54.9394 29.3727 55.2061 29.326 55.3927 29.2327C55.5927 29.126 55.7461 28.9794 55.8527 28.7927C55.9594 28.606 56.0194 28.386 56.0327 28.1327C56.0594 27.866 56.0727 27.5727 56.0727 27.2527C56.0727 26.8794 56.0594 26.5727 56.0327 26.3327C56.0061 26.0927 55.9527 25.8994 55.8727 25.7527C55.7794 25.606 55.6527 25.486 55.4927 25.3927C55.3461 25.2994 55.1461 25.1994 54.8927 25.0927L53.4327 24.4927C52.5527 24.1327 51.9594 23.6594 51.6527 23.0727C51.3594 22.4727 51.2127 21.726 51.2127 20.8327C51.2127 20.2994 51.2861 19.7927 51.4327 19.3127C51.5794 18.8327 51.7994 18.4194 52.0927 18.0727C52.3727 17.726 52.7261 17.4527 53.1527 17.2527C53.5927 17.0394 54.1127 16.9327 54.7127 16.9327C55.2194 16.9327 55.6794 17.026 56.0927 17.2127C56.5194 17.3994 56.8861 17.646 57.1927 17.9527C57.8061 18.5927 58.1127 19.326 58.1127 20.1527V21.1527Z" fill="#D9D9D9"/>
<path d="M66.4777 31.2927V18.9727H64.1177V17.0527H70.8777V18.9727H68.5177V31.2927H66.4777Z" fill="#D9D9D9"/>
<path d="M79.3184 18.9727V23.4127H80.4784C80.8384 23.4127 81.125 23.366 81.3384 23.2727C81.5517 23.166 81.7184 23.0194 81.8384 22.8327C81.945 22.646 82.0184 22.4194 82.0584 22.1527C82.0984 21.8727 82.1184 21.5527 82.1184 21.1927C82.1184 20.8327 82.0984 20.5194 82.0584 20.2527C82.0184 19.9727 81.9384 19.7327 81.8184 19.5327C81.565 19.1594 81.085 18.9727 80.3784 18.9727H79.3184ZM77.2784 31.2927V17.0527H80.5584C82.9584 17.0527 84.1584 18.446 84.1584 21.2327C84.1584 22.0727 84.025 22.786 83.7584 23.3727C83.505 23.9594 83.0517 24.4327 82.3984 24.7927L84.5984 31.2927H82.4384L80.5384 25.2127H79.3184V31.2927H77.2784Z" fill="#D9D9D9"/>
<path d="M91.294 31.2927V17.0527H97.374V18.9727H93.334V23.1527H96.854V25.0727H93.334V29.2527H97.374V31.2927H91.294Z" fill="#D9D9D9"/>
<path d="M104.196 31.2927V17.0527H110.276V18.9727H106.236V23.1527H109.756V25.0727H106.236V29.2527H110.276V31.2927H104.196Z" fill="#D9D9D9"/>
<path d="M118.439 31.2927V18.9727H116.079V17.0527H122.839V18.9727H120.479V31.2927H118.439Z" fill="#D9D9D9"/>
<path d="M139.819 17.0527L137.699 31.2927H135.779L134.219 22.0527H134.179L132.639 31.2927H130.719L128.599 17.0527H130.759L131.779 26.0927H131.819L133.419 17.0527H134.979L136.639 26.3127H136.679L137.659 17.0527H139.819Z" fill="#D9D9D9"/>
<path d="M146.595 31.2927V17.0527H152.675V18.9727H148.635V23.1527H152.155V25.0727H148.635V29.2527H152.675V31.2927H146.595Z" fill="#D9D9D9"/>
<path d="M163.617 26.3127L162.617 21.1527H162.577L161.577 26.3127H163.617ZM158.577 31.2927L161.757 17.0527H163.457L166.637 31.2927H164.597L163.997 28.2327H161.217L160.617 31.2927H158.577Z" fill="#D9D9D9"/>
<path d="M175.182 18.9727V23.4127H176.342C176.702 23.4127 176.988 23.366 177.202 23.2727C177.415 23.166 177.582 23.0194 177.702 22.8327C177.808 22.646 177.882 22.4194 177.922 22.1527C177.962 21.8727 177.982 21.5527 177.982 21.1927C177.982 20.8327 177.962 20.5194 177.922 20.2527C177.882 19.9727 177.802 19.7327 177.682 19.5327C177.428 19.1594 176.948 18.9727 176.242 18.9727H175.182ZM173.142 31.2927V17.0527H176.422C178.822 17.0527 180.022 18.446 180.022 21.2327C180.022 22.0727 179.888 22.786 179.622 23.3727C179.368 23.9594 178.915 24.4327 178.262 24.7927L180.462 31.2927H178.302L176.402 25.2127H175.182V31.2927H173.142Z" fill="#D9D9D9"/>
</svg>
