<svg width="50" height="64" viewBox="0 0 50 64" fill="none" xmlns="http://www.w3.org/2000/svg">
<path d="M38.1429 24.4431C38.1429 17.3603 32.2586 11.6185 25 11.6185M31.5034 55.5318C29.3982 53.771 28.3456 52.8906 27.1893 52.4919C25.7727 52.0035 24.2273 52.0035 22.8107 52.4919C21.6544 52.8906 20.6018 53.771 18.4966 55.5318C13.7139 59.532 11.3226 61.5321 9.3267 61.7574C6.88843 62.0327 4.49618 60.959 3.12357 58.9734C2 57.3481 2 54.2748 2 48.1282V24.4431C2 18.4756 2 15.4918 2.80407 13.077C4.42915 8.19663 8.35038 4.37034 13.3519 2.7846C15.8265 2 18.8844 2 25 2C31.1156 2 34.1735 2 36.6481 2.7846C41.6496 4.37034 45.5708 8.19663 47.1959 13.077C48 15.4918 48 18.4756 48 24.4431V48.1282C48 54.2748 48 57.3481 46.8764 58.9734C45.5038 60.959 43.1116 62.0327 40.6733 61.7574C38.6774 61.5321 36.2861 59.532 31.5034 55.5318Z" stroke="#D9D9D9" stroke-width="2.60343" stroke-linecap="round"/>
</svg>
